# xmcd
#
# Track frame offsets: 
#        150
#        12698
#        31855
#        48124
#        61265
#        84283
#        104141
#        119493
#        142959
#        160387
#        177830
#        194397
#        211000
#
# Disc length: 2977 seconds
#
# Revision: 0
# Processed by: cddbd v1.5.2PL0 Copyright (c) Steve Scherf et al.
# Submitted via: ExactAudioCopy v0.95b4
#
DISCID=ad0b9f0d
DTITLE=Hot Monkey Love - Speakin' Evil
DYEAR=2007
DGENRE=Blues/Rock
TTITLE0=Palace Of The King
TTITLE1=Angel
TTITLE2=Fallin'
TTITLE3=My Confession
TTITLE4=Come On In This House
TTITLE5=Weight Off My Shoulders
TTITLE6=The More You Lie To Me
TTITLE7=Stay
TTITLE8=Speakin' Evil
TTITLE9=3 O'clock In The Morning
TTITLE10=Stop Breaking Down
TTITLE11=I've Been Loving You Too Long
TTITLE12=The Reason
EXTD=
EXTT0=
EXTT1=
EXTT2=
EXTT3=
EXTT4=
EXTT5=
EXTT6=
EXTT7=
EXTT8=
EXTT9=
EXTT10=
EXTT11=
EXTT12=
PLAYORDER=
